<svg width="145" height="29" viewBox="0 0 145 29" fill="none" xmlns="http://www.w3.org/2000/svg">
<path d="M33.3176 28.9062L16.6596 0L0 28.9062H33.3176ZM50.1201 27.5894L64.0433 1.31363H58.0212L48.4179 20.3965L38.8146 1.31363H32.7925L46.714 27.591L50.1201 27.5894ZM145 1.31523V27.5926H140.015V1.31363L145 1.31523ZM117.25 17.7853C117.25 15.7373 117.678 13.936 118.535 12.3815C119.356 10.8628 120.601 9.61535 122.117 8.7907C123.65 7.95242 125.441 7.53328 127.492 7.53328C129.31 7.53328 130.946 7.9278 132.4 8.71683C133.854 9.50693 135.01 10.6792 135.867 12.2337C136.724 13.7861 137.165 15.6859 137.19 17.9331V19.0797H122.508C122.612 20.7081 123.092 21.9912 123.948 22.929C124.831 23.8412 126.013 24.2973 127.492 24.2973C128.428 24.2973 129.285 24.051 130.062 23.5586C130.828 23.0767 131.438 22.3819 131.816 21.5592L136.919 21.9286C136.295 23.7807 135.126 25.2613 133.413 26.3705C131.7 27.4796 129.727 28.0347 127.492 28.0358C125.441 28.0358 123.65 27.6167 122.117 26.7784C120.601 25.9537 119.356 24.7063 118.535 23.1876C117.678 21.632 117.25 19.8313 117.25 17.7853ZM132.05 15.9337C131.868 14.3311 131.362 13.1587 130.531 12.4168C129.7 11.6535 128.687 11.2713 127.492 11.2702C126.117 11.2702 125.001 11.677 124.144 12.4907C123.287 13.3065 122.754 14.4542 122.546 15.9337H132.05ZM108.838 12.4168C109.67 13.0849 110.189 14.0109 110.396 15.195L115.538 14.9349C115.356 13.4307 114.824 12.1229 113.942 11.0117C113.059 9.90145 111.916 9.05032 110.513 8.45828C109.138 7.84161 107.619 7.53328 105.957 7.53328C103.906 7.53328 102.114 7.95242 100.582 8.7907C99.0638 9.6141 97.8177 10.8618 96.9964 12.3815C96.1399 13.9371 95.7117 15.7378 95.7117 17.7837C95.7117 19.8318 96.1399 21.6331 96.9964 23.1876C97.8181 24.7065 99.0633 25.954 100.581 26.7784C102.113 27.6167 103.904 28.0358 105.956 28.0358C107.669 28.0358 109.226 27.7275 110.629 27.1108C112.031 26.4684 113.174 25.5681 114.056 24.4097C114.939 23.2492 115.472 21.8922 115.654 20.3387L110.473 20.1155C110.291 21.4249 109.785 22.4366 108.954 23.1507C108.123 23.8412 107.124 24.1865 105.956 24.1865C104.346 24.1865 103.099 23.6314 102.216 22.5211C101.332 21.4109 100.891 19.8318 100.891 17.7837C100.891 15.7357 101.332 14.1565 102.216 13.0463C103.099 11.9383 104.346 11.3837 105.956 11.3826C107.072 11.3826 108.033 11.7279 108.837 12.4184M83.547 7.97811H88.1848L88.3197 11.752C88.6484 10.6835 89.1066 9.8538 89.6944 9.26283C90.5433 8.40635 91.7285 7.97811 93.2498 7.97811H95.1448V12.0186H93.2113C92.1289 12.0186 91.2398 12.1652 90.5439 12.4586C89.8874 12.7394 89.3433 13.231 88.9974 13.8557C88.6623 14.4927 88.4947 15.301 88.4947 16.2806V27.5942H83.547V7.97811ZM62.1483 12.3799C61.2919 13.9355 60.8636 15.7362 60.8636 17.7821C60.8636 19.8302 61.2919 21.6315 62.1483 23.186C62.97 24.7049 64.2153 25.9524 65.7327 26.7768C67.2647 27.6151 69.0564 28.0342 71.1077 28.0342C73.3409 28.0342 75.314 27.4791 77.027 26.3689C78.74 25.2587 79.9085 23.7786 80.5327 21.9286L75.4307 21.5592C75.0531 22.3811 74.4443 23.0753 73.6787 23.557C72.9112 24.0468 72.0181 24.3034 71.1077 24.2957C69.627 24.2957 68.4456 23.8396 67.5634 22.9274C66.707 21.9896 66.2263 20.7065 66.1213 19.0781H80.8057V17.9315C80.78 15.6864 80.3384 13.7861 79.4808 12.2305C78.6243 10.6782 77.4692 9.50639 76.0153 8.71522C74.5593 7.92619 72.9234 7.53167 71.1077 7.53167C69.0564 7.53167 67.2647 7.95081 65.7327 8.78909C64.2145 9.61318 62.969 10.8614 62.1483 12.3815M74.1444 12.4184C74.9763 13.1571 75.4827 14.3294 75.6636 15.9353H66.1631C66.3697 14.4536 66.9018 13.306 67.7594 12.4923C68.6169 11.6786 69.7335 11.2718 71.1093 11.2718C72.303 11.2718 73.3158 11.654 74.1476 12.4184" fill="#999999"/>
</svg>
