<svg width="147" height="24" viewBox="0 0 147 24" fill="none" xmlns="http://www.w3.org/2000/svg">
<path d="M56.8979 12.656L54.9391 12.476C53.6547 12.3639 53.1375 11.9135 53.1375 11.1249C53.1375 10.2015 53.9251 9.59376 55.4562 9.59376C56.8978 9.59376 57.6187 10.2231 57.7308 11.237H62.3251C62.0321 8.2426 59.9158 6.12545 55.592 6.12545C51.0881 6.12545 48.61 8.42254 48.61 11.4622C48.61 14.3001 50.1638 15.8539 54.0157 16.1695L55.9529 16.3268C57.4604 16.4399 58.0012 16.9572 58.0012 17.858C58.0012 18.8039 57.2135 19.5022 55.592 19.5022C54.0825 19.5022 53.1828 18.8266 53.0254 17.6338H48.1823C48.6101 20.8986 50.9072 23.06 55.5693 23.06C60.0958 23.06 62.5955 20.7413 62.5955 17.6102C62.5955 14.5706 60.9287 13.0169 56.8979 12.656ZM41.044 6.12545C38.1617 6.12545 36.4497 7.63391 35.6394 10.7197H35.3464V6.39584H30.7973V22.7906H35.6394V13.242C35.6394 11.057 36.7654 9.86415 38.7921 9.86415C40.7962 9.86415 41.7874 11.1032 41.7874 13.2195V22.7906H46.6285V12.3639C46.6285 8.3999 44.5575 6.12545 41.044 6.12545ZM26.0909 0C24.4467 0 23.2077 1.08175 23.2077 2.72496C23.2077 4.36915 24.4241 5.44983 26.0683 5.44983C27.7125 5.44983 28.9279 4.36817 28.9279 2.72496C28.9279 1.10331 27.7125 0 26.0909 0ZM28.5001 6.39584H23.658V22.7906H28.5001V6.39584ZM70.2068 2.92753H67.1219C67.0315 5.56292 65.9055 6.71053 63.3833 6.9131V10.2468H65.3656V17.4529C65.3656 21.0785 67.4366 23.06 71.5579 23.06C72.3328 23.06 73.1048 22.9617 73.8551 22.768V18.8709C73.4684 18.9351 73.0769 18.965 72.6849 18.9604C70.9502 18.9604 70.2068 18.3074 70.2068 16.4832V10.2468H74.4638V6.39584H70.2068V2.92753ZM147 10.2468V6.39584H142.744V2.92753H139.704C139.635 4.75165 139.096 5.80979 137.901 6.39584V17.4529C137.901 21.0785 139.974 23.06 144.095 23.06C144.87 23.06 145.642 22.9617 146.392 22.768V18.8709C146.005 18.9351 145.613 18.9651 145.221 18.9604C143.487 18.9604 142.744 18.3074 142.744 16.4832V10.2468H147ZM131.146 10.9676H130.853V6.39486H126.371V22.7906H131.214V13.9176C131.214 11.4622 132.317 10.4267 134.84 10.4267C135.267 10.4267 135.741 10.4719 136.393 10.584V6.35057C135.952 6.19572 135.488 6.11957 135.019 6.12545C133.06 6.12545 131.709 7.25141 131.146 10.9676ZM100.226 18.917C97.9516 18.917 96.3074 17.4076 96.3074 14.4801C96.3074 11.8683 97.8385 10.2468 100.181 10.2468C102.185 10.2468 103.334 11.3727 103.672 13.1742H108.581C108.108 8.96243 105.091 6.12545 100.249 6.12545C94.9336 6.12545 91.4436 9.72852 91.4436 14.6611C91.4436 19.7726 94.7989 23.06 100.181 23.06C105.069 23.06 108.244 20.3361 108.694 15.9207H103.784C103.514 17.7233 102.276 18.917 100.226 18.917ZM82.8637 6.12545C78.652 6.12545 76.108 8.19733 75.6566 11.9125H80.2961C80.4535 10.6293 81.2874 9.95363 82.7506 9.95363C84.2365 9.95363 84.9121 10.6293 84.9121 11.5978C84.9121 12.4082 84.3948 12.8369 83.0663 13.0837L80.8587 13.4899C76.9636 14.2097 75.4767 15.8086 75.4767 18.3536C75.4767 21.2585 77.526 23.0836 80.3641 23.0836C82.6828 23.0836 84.1922 22.0019 84.8905 19.2996H85.1825V22.7906H89.7552V12.0935C89.7552 8.37736 87.5249 6.12545 82.8637 6.12545ZM82.3229 19.7726C81.017 19.7726 80.2735 19.0744 80.2735 18.038C80.2735 17.1824 80.7917 16.5973 82.0751 16.3043L82.9758 16.1017C83.7527 15.9217 84.3555 15.6818 84.913 15.1999V16.9346C84.913 18.9387 83.854 19.7726 82.3229 19.7726ZM117.274 6.12545C113.062 6.12545 110.518 8.19733 110.068 11.9125H114.706C114.865 10.6293 115.697 9.95363 117.161 9.95363C118.648 9.95363 119.323 10.6293 119.323 11.5978C119.323 12.4082 118.805 12.8369 117.477 13.0837L115.27 13.4899C111.373 14.2097 109.886 15.8086 109.886 18.3536C109.886 21.2585 111.936 23.0836 114.774 23.0836C117.094 23.0836 118.603 22.0019 119.301 19.2996H119.594V22.7906H124.165V12.0935C124.165 8.37736 121.935 6.12545 117.274 6.12545ZM116.733 19.7726C115.428 19.7726 114.684 19.0744 114.684 18.038C114.684 17.1824 115.202 16.5973 116.485 16.3043L117.386 16.1017C118.163 15.9217 118.766 15.6818 119.323 15.1999V16.9346C119.323 18.9387 118.265 19.7726 116.733 19.7726ZM15.5077 3.92402C14.5126 3.92402 13.8026 4.35768 13.1476 5.29978L11.2596 8.01092V0.271761H6.75577V8.01092L4.8677 5.29978C4.21376 4.35768 3.50376 3.92402 2.50761 3.92402C1.00502 3.92402 0.00493773 5.03331 2.08833e-05 6.40016C-0.0039126 7.5704 0.547758 8.33345 1.71108 9.08278L9.00768 13.7833L16.3043 9.08278C17.4676 8.33345 18.0192 7.5704 18.0153 6.40016C18.0114 5.03331 17.0103 3.92402 15.5077 3.92402ZM9.00721 14.909C13.3438 14.909 16.8988 18.1463 16.8889 22.7917H1.12551C1.11666 18.1482 4.67056 14.909 9.00721 14.909Z" fill="#999999"/>
</svg>
