<svg width="144" height="23" viewBox="0 0 144 23" fill="none" xmlns="http://www.w3.org/2000/svg">
<path d="M118.899 0.705541L119.175 17.2869H119.037L114.361 0.705541H106.659V21.5908H111.748L111.473 4.44549H111.611L116.63 21.5908H123.989V0.705541H118.899ZM22.0056 0.705541L18.1548 21.8031H23.7252L26.5446 2.6109H26.682L29.433 21.8026H34.9344L31.1519 0.705541H22.0056ZM53.0886 0.705541L50.5446 16.7932H50.4066L47.8626 0.705541H39.4728L39.06 21.8031H44.2176L44.3556 2.82206H44.424L47.862 21.8026H53.0886L56.5272 2.82265H56.6652L56.8019 21.8026H61.9595L61.4784 0.705541H53.0886ZM9.49017 15.8051C9.69603 16.2988 9.6276 17.0049 9.55859 17.3578C9.42115 18.0632 8.94003 18.7687 7.5642 18.7687C6.25799 18.7687 5.50139 17.993 5.50139 16.8634V14.8176H0V16.4405C0 21.1679 3.6444 22.5789 7.49579 22.5789C11.2092 22.5789 14.3034 21.238 14.7852 17.7807C15.06 15.9461 14.8536 14.7469 14.7852 14.3233C13.8222 9.87846 5.9832 8.60834 5.4324 6.13841C5.364 5.71491 5.364 5.292 5.4324 5.00937C5.5704 4.30393 6.0516 3.59839 7.28939 3.59839C8.52723 3.59839 9.21539 4.37402 9.21539 5.50375V6.77376H14.3724V5.292C14.3724 0.70554 10.3152 0 7.42679 0C3.78239 0 0.756599 1.27001 0.206401 4.65665C0.0683945 5.57394 8.77699e-08 6.42104 0.274795 7.4793C1.1004 11.854 8.45939 13.124 9.49017 15.8051ZM76.4016 15.8051C76.6074 16.2994 76.5384 16.9342 76.47 17.3578C76.332 18.0632 75.8508 18.7687 74.4756 18.7687C73.1688 18.7687 72.4128 17.993 72.4128 16.8634V14.8176H66.9108V16.4405C66.9108 21.097 70.4868 22.5087 74.3382 22.5087C78.0516 22.5087 81.0774 21.2387 81.5586 17.7105C81.834 15.8759 81.6276 14.7469 81.5586 14.2531C80.7336 9.87845 72.9624 8.53756 72.4128 6.1391C72.3438 5.7155 72.3438 5.292 72.4128 5.00937C72.5502 4.30393 73.0313 3.59839 74.2692 3.59839C75.438 3.59839 76.1951 4.37402 76.1951 5.50375V6.77376H81.2832V5.292C81.2832 0.70554 77.295 0 74.4072 0C70.7622 0 67.8048 1.19923 67.2552 4.65665C67.1172 5.57394 67.1172 6.42104 67.3236 7.4793C68.1492 11.854 75.3695 13.0532 76.4016 15.8051ZM93.7308 18.6278C95.1749 18.6278 95.5872 17.6397 95.7246 17.0751C95.7936 16.864 95.7936 16.5106 95.7936 16.2994V0.705541H101.02V15.8759C101.02 16.2994 101.02 17.0751 100.951 17.2869C100.607 21.2387 97.5818 22.5087 93.7992 22.5087C90.0173 22.5087 86.9916 21.2387 86.6472 17.2869C86.6472 17.0751 86.5788 16.2994 86.5788 15.8759V0.705541H91.8048V16.2994C91.8048 16.5814 91.8048 16.8634 91.8738 17.0751C91.8738 17.6397 92.2866 18.6278 93.7308 18.6278ZM136.641 18.416C138.155 18.416 138.636 17.4278 138.773 16.8634C138.842 16.6522 138.842 16.2988 138.842 16.0876V13.0532H136.711V9.94855H144V15.594C144 16.0169 144 16.2988 143.931 17.0049C143.587 20.8853 140.355 22.2262 136.711 22.2262C133.066 22.2262 129.834 20.8853 129.491 17.0049C129.421 16.2988 129.421 16.0169 129.421 15.5933V6.70357C129.421 6.35026 129.491 5.64472 129.491 5.292C129.972 1.3402 133.066 0.0701907 136.711 0.0701907C140.355 0.0701907 143.519 1.3402 143.931 5.292C144 5.92666 144 6.70298 144 6.70298V7.40852H138.842V6.20929C138.842 6.20929 138.842 5.71491 138.773 5.43297C138.705 4.93918 138.292 3.88092 136.711 3.88092C135.198 3.88092 134.785 4.8684 134.647 5.43297C134.579 5.71491 134.579 6.06832 134.579 6.42104V16.0876C134.579 16.3696 134.579 16.6516 134.647 16.8634C134.647 17.4278 135.198 18.416 136.641 18.416Z" fill="#999999"/>
</svg>
