<svg width="136" height="40" viewBox="0 0 136 40" fill="none" xmlns="http://www.w3.org/2000/svg">
<path fill-rule="evenodd" clip-rule="evenodd" d="M28.8904 7.15952C29.0245 7.18247 29.2034 7.27424 29.2258 7.48073C29.2481 7.66429 33.3626 36.2289 33.3626 36.2289L23.2771 38.7989L0 34.6688C0 34.6688 2.77276 12.6201 2.88457 11.8629C3.01873 10.8305 3.06345 10.8075 4.11442 10.4634C4.13032 10.4471 4.88116 10.2103 6.06945 9.83569C6.55225 9.6834 7.10727 9.50843 7.71453 9.31619C7.93815 7.66429 8.72078 5.53054 9.77173 3.83272C11.27 1.4007 13.0812 0.0470402 14.9148 0.00114619C15.8539 -0.0217959 16.6366 0.299413 17.2627 0.987724C17.3074 1.05654 17.3521 1.10243 17.3969 1.14832C17.4863 1.12537 17.5981 1.12538 17.6875 1.12538C19.1186 1.12538 20.2814 1.95135 21.0864 3.53445C21.3324 4.01626 21.5112 4.49808 21.6231 4.88812C22.3386 4.65868 22.7635 4.52102 22.7635 4.52102C22.8991 4.48623 23.1762 4.43825 23.3997 4.51707C23.448 4.53211 23.4948 4.55623 23.5379 4.58942C23.5565 4.6033 23.5742 4.61869 23.5908 4.63574C23.8144 4.86518 26.0729 7.11364 26.0729 7.11364C26.0729 7.11364 28.7562 7.13658 28.8904 7.15952ZM19.5547 5.54106C19.8751 5.4375 20.1771 5.33996 20.4603 5.25521C20.1696 4.29159 19.4987 2.68554 18.0901 2.41022C18.5149 3.55739 18.6267 4.88812 18.6491 5.8288C18.9658 5.73129 19.2677 5.63375 19.5547 5.54106ZM16.4989 6.5171C16.8181 6.41623 17.1326 6.31681 17.4415 6.21884C17.4415 5.18639 17.3521 3.64917 16.8378 2.57082C16.3011 2.80025 15.8539 3.1903 15.5185 3.55739C14.6465 4.52102 13.9309 5.98941 13.5508 7.45775C14.5554 7.13136 15.5475 6.8178 16.4989 6.5171ZM16.0329 1.5613C15.7198 1.35482 15.362 1.26304 14.9371 1.26304C12.1197 1.35482 9.65998 5.87469 8.98911 8.90322L9.28143 8.80991C10.2023 8.51588 11.1764 8.2047 12.1868 7.89371C12.5445 5.96647 13.4389 3.99332 14.6017 2.70849C15.0489 2.20372 15.5409 1.81369 16.0329 1.5613ZM17.6833 12.4832L16.5205 16.9802C16.5205 16.9802 15.2236 16.3607 13.6583 16.4754C11.3775 16.6131 11.3551 18.0814 11.3775 18.4715C11.4305 19.2699 12.2669 19.8208 13.2768 20.4859C14.8205 21.5026 16.7697 22.7864 16.9453 25.6298C17.1689 29.3467 15.0223 31.8705 11.9365 32.077C8.22457 32.3064 6.18972 30.0809 6.18972 30.0809L6.97235 26.6623C6.97235 26.6623 9.02956 28.2454 10.6619 28.1536C11.7352 28.0848 12.1154 27.19 12.0707 26.5476C12.002 25.4001 11.1544 24.7826 10.2018 24.0886C8.98306 23.2006 7.59255 22.1874 7.44193 19.7793C7.21832 16.1541 9.54389 12.4832 14.6645 12.1391C16.677 11.9555 17.6833 12.4832 17.6833 12.4832ZM45.2593 20.1265C45.2593 20.8836 45.8631 21.4343 47.0258 22.0767C48.837 23.132 50.3353 24.5775 50.3129 26.6195C50.3129 30.3821 47.3389 32.47 43.2021 32.47C40.3623 32.47 38.6628 31.2999 38.6628 31.2999L39.8032 27.9502C39.8032 27.9502 41.6368 28.9826 43.5823 28.9826C44.9015 28.9826 45.5947 28.2714 45.5947 27.3766C45.5947 26.5047 45.1028 25.9311 43.694 25.1052C41.9499 24.0727 40.653 22.6273 40.653 20.7459C40.653 17.4191 43.448 15.0559 47.473 15.0559C50.3576 15.0559 51.3414 15.836 51.3414 15.836L50.2681 19.1857C50.2681 19.1857 48.9265 18.5433 47.406 18.5433C46.0867 18.5433 45.2593 19.1628 45.2593 20.1265ZM58.6535 17.5108C59.8834 15.9966 61.4933 15.01 63.5282 15.01C65.9209 15.01 67.3072 16.639 67.3072 19.2775C67.3072 20.0805 67.173 21.3195 66.9718 22.3519L65.1605 32.1259H60.5542L62.2984 22.6732C62.4325 22.0308 62.4996 21.2277 62.4996 20.5853C62.4996 19.5528 62.0971 18.8416 61.0685 18.8416C59.5927 18.8416 58.0274 20.7689 57.4236 23.8891L55.8807 32.1489H51.2744L55.7466 7.98928H60.3529L58.5864 17.4879L58.6535 17.5108ZM68.5147 25.8853C68.5147 20.1494 72.1819 15.01 77.7275 15.01C82.0208 15.01 83.9661 18.2451 83.9885 21.6178C83.9885 27.4913 80.2989 32.493 74.8652 32.493C70.7285 32.493 68.5147 29.5562 68.5147 25.8853ZM73.2106 25.7934C73.2106 27.4913 73.8814 28.8679 75.4466 28.8679C77.884 28.8679 79.248 24.4169 79.248 21.503C79.248 20.1035 78.7113 18.658 77.0789 18.658C74.5746 18.658 73.2106 23.0862 73.2106 25.7934ZM90.8756 17.8091C90.8756 17.8091 92.6422 15.01 95.7504 15.01C99.127 15.01 100.513 17.8551 100.491 20.9983C100.491 26.7571 96.9578 32.4471 91.5465 32.4471C89.78 32.4471 88.8408 31.8276 88.8408 31.8276H88.7514L87.4768 38.8254H82.8705L86.0681 21.526C86.4482 19.5758 86.8059 16.9831 87.0073 15.2624H91.077L90.8086 17.8091H90.8756ZM89.4446 28.2484C89.4446 28.2484 90.1378 28.9368 91.3452 28.9368C93.9168 28.9368 95.6833 24.5775 95.6833 21.526C95.6833 20.2412 95.2584 18.9104 93.8497 18.9104C92.2397 18.9104 90.7415 20.8836 90.2048 23.8204L89.4446 28.2484ZM104.449 10.9949C104.449 9.43475 105.611 8.24168 107.088 8.24168C108.496 8.24168 109.391 9.22821 109.391 10.6048C109.368 12.3715 108.116 13.3581 106.685 13.3581H106.618C105.321 13.3581 104.449 12.3944 104.449 10.9949ZM105.254 32.1489H100.648L103.733 15.4001H108.385L105.254 32.1489ZM116.904 15.3542H120.101L119.431 18.9104H116.256L113.818 32.1489H109.211L111.649 18.9104H109.502L110.173 15.3542H112.32L112.454 14.5741C112.834 12.578 113.572 10.6048 115.137 9.22821C116.39 8.12697 118.022 7.64515 119.655 7.64515C121.354 7.64515 122.159 8.05813 122.159 8.05813L121.264 11.752C121.264 11.752 120.616 11.5226 119.789 11.5226C118.268 11.5226 117.329 12.9681 117.06 14.5741L116.904 15.3542ZM127.011 26.9178C128.308 22.8567 131.193 15.4001 131.193 15.4001H136L130.365 27.8126C128.375 32.057 126.43 35.1774 124.328 37.1964C122.673 38.7795 120.75 39.5596 119.81 39.7661L118.536 35.7509C119.319 35.4757 120.281 35.0627 121.153 34.4203C122.226 33.6631 123.12 32.6307 123.657 31.5752C123.768 31.3458 123.814 31.1394 123.747 30.7952L120.973 15.4001H125.803C125.803 15.4001 126.855 25.61 126.943 26.9178H127.011Z" fill="#999999"/>
</svg>
