<svg width="167" height="41" viewBox="0 0 167 41" fill="none" xmlns="http://www.w3.org/2000/svg">
<path fill-rule="evenodd" clip-rule="evenodd" d="M15.1088 0V10.9969L5.38346 1.2192L4.54299 0.374211V11.7182H0V27.9026H4.54411V39.3105L5.38458 38.4654L15.1088 28.6889V40.3266H16.0923V28.6397L25.8644 38.4654L26.7049 39.3105V27.9026H31.2479V11.7182H26.7049V0.374122L25.8644 1.21922L16.0923 11.045V0H15.1088ZM5.52657 2.75782L14.4389 11.7182H5.52657V2.75782ZM0.983575 12.7018H4.54299V12.704H14.439L4.6907 22.5059L4.68722 22.5094L4.54416 22.6532L4.54411 22.8561L4.54311 26.9191H0.983575V12.7018ZM5.52769 36.9268V23.0591L15.1088 13.4265V27.2942L5.52769 36.9268ZM16.1168 27.2695V13.4029L25.7213 23.0591L25.7202 27.4107L25.7201 27.9026H25.7213V36.9268L16.1168 27.2695ZM26.7049 22.8563V26.9191H30.2644V12.7018H26.7049V12.704H16.81L26.545 22.4925L26.5618 22.5094L26.7049 22.6533V22.8563ZM25.7213 4.48073V11.7182H16.81L25.7213 2.7579V4.48073ZM64.556 11.7262C63.3639 12.3994 62.4394 13.3561 61.7782 14.5983L61.7793 14.5972C61.118 15.8407 60.788 17.3025 60.788 18.9872C60.788 20.672 61.128 22.135 61.8083 23.3783C62.4885 24.6217 63.4554 25.5795 64.7054 26.2505C65.9565 26.9215 67.4029 27.2575 69.0443 27.2575C71.2255 27.2575 72.9026 26.722 74.0724 25.649C75.2432 24.577 76.0183 23.3078 76.3985 21.8448H73.5461C73.2249 22.788 72.7208 23.524 72.0295 24.0549C71.3404 24.5859 70.3434 24.8514 69.0432 24.8514C67.4408 24.8514 66.1651 24.391 65.215 23.468C64.265 22.5461 63.7397 21.3027 63.6393 19.7389H76.0964V17.9354C76.0964 16.6337 75.8209 15.4362 75.2711 14.343C74.7214 13.2508 73.8906 12.3737 72.78 11.7116C71.6704 11.0496 70.3445 10.7192 68.7433 10.7192C67.1419 10.7192 65.7458 11.0552 64.556 11.7262ZM72.0451 14.2813C72.7454 15.0543 73.0956 16.1207 73.0956 17.4839H63.6694C63.8691 16.0814 64.4144 15.0028 65.3053 14.2511C66.1952 13.4995 67.3416 13.1242 68.7421 13.1242C70.2442 13.1242 71.3448 13.5095 72.0451 14.2813ZM79.8387 13.6652V11.1684H77.1345V26.8061H79.8364V17.9354C79.8364 16.4713 80.1665 15.4194 80.8278 14.7776C81.489 14.1357 82.4893 13.8154 83.8308 13.8154H85.5425V11.1101H84.2222C82.1603 11.1101 80.8691 11.9323 80.3493 13.5756C80.3104 13.6955 80.2713 13.7751 80.23 13.8154C80.1888 13.8557 80.1297 13.8759 80.0494 13.8759C79.9089 13.8759 79.8387 13.8063 79.8387 13.6652ZM98.6455 26.3233C99.7756 25.7027 100.697 24.7651 101.407 23.5127C102.118 22.2593 102.474 20.7504 102.474 18.9883C102.474 17.2263 102.118 15.7162 101.407 14.464C100.696 13.2105 99.7756 12.2728 98.6455 11.6523C97.5144 11.0317 96.2978 10.7203 94.9976 10.7203C92.4362 10.7203 90.6341 11.7419 89.5938 13.7874C89.5134 13.9464 89.4142 14.027 89.2938 14.027C89.1733 14.027 89.1131 13.9666 89.1131 13.8467V11.1706H86.4112V32.5179H89.1131V24.1289C89.1131 24.009 89.1745 23.9485 89.2938 23.9485C89.4131 23.9485 89.5134 24.0291 89.5938 24.1883C90.6341 26.2337 92.4362 27.2552 94.9976 27.2552C96.2978 27.2552 97.5144 26.9438 98.6455 26.3233ZM94.3675 13.123C95.9878 13.123 97.2936 13.6394 98.2845 14.6723C99.276 15.7051 99.7717 17.1434 99.7717 18.9872C99.7717 20.831 99.276 22.2694 98.2845 23.3022C97.2948 24.3361 95.9878 24.8514 94.3675 24.8514C92.7473 24.8514 91.4415 24.335 90.4502 23.3022C89.4588 22.2705 89.0953 20.831 89.0953 18.9872C89.0953 17.1434 89.4588 15.7051 90.4502 14.6723C91.4403 13.6394 92.7473 13.123 94.3675 13.123ZM106.394 26.805V5.15745H103.692V26.805H106.394ZM108.619 14.5961C107.958 15.8395 107.628 17.3014 107.628 18.9861C107.628 20.6709 107.969 22.1338 108.648 23.3772C109.329 24.6206 110.296 25.5783 111.546 26.2493C112.797 26.9203 114.243 27.2564 115.885 27.2564C118.066 27.2564 119.743 26.721 120.913 25.6478C122.083 24.5758 122.859 23.3067 123.239 21.8437H120.386C120.066 22.7869 119.561 23.5229 118.87 24.0538C118.18 24.5847 117.184 24.8503 115.884 24.8503C114.281 24.8503 113.006 24.3899 112.056 23.4668C111.105 22.5449 110.58 21.3015 110.48 19.7378H122.937V17.9342C122.937 16.6326 122.662 15.4351 122.112 14.3418C121.562 13.2496 120.732 12.3726 119.62 11.7105C118.511 11.0485 117.183 10.718 115.583 10.718C113.982 10.718 112.587 11.0541 111.397 11.7251C110.204 12.3982 109.28 13.3544 108.619 14.5961ZM118.885 14.2802C119.586 15.0531 119.936 16.1195 119.936 17.4828H110.51C110.711 16.0804 111.255 15.0016 112.146 14.2499C113.036 13.4983 114.183 13.123 115.583 13.123C117.085 13.123 118.185 13.5084 118.885 14.2802ZM127.918 18.5347L121.735 26.2034H121.737V26.805H124.769L129.691 20.5207L134.284 26.805H137.196V26.2034L131.822 18.9872L137.645 11.8001V11.1684H134.615L130.051 17.0012L125.818 11.1684H122.845V11.7698L127.918 18.5347ZM141.569 9.46346V6.07938H138.412V9.46346H141.569ZM138.702 26.8061H141.404V11.1695H138.702V26.8061ZM142.258 11.1695H142.256V11.1684H142.258V11.1695ZM142.258 11.1695V13.4602H145.197V21.6924C145.197 23.4175 145.618 24.699 146.458 25.5414C147.298 26.3849 148.579 26.805 150.301 26.805H152.402V24.3999H151.351C150.329 24.3999 149.574 24.4246 149.084 24.475C148.593 24.5254 148.298 24.55 148.199 24.55C148.057 24.55 147.948 24.5109 147.868 24.4302C147.787 24.3506 147.748 24.2409 147.748 24.0997C147.748 24 147.773 23.7043 147.823 23.2126C147.873 22.7208 147.899 21.9635 147.899 20.942V13.4614H151.752L150.992 11.1695H147.899V6.95987H145.196V11.1695H142.258ZM154.561 11.1695H151.806V11.1706H151.809L156.988 26.8061H158.82C158.939 26.8061 159.029 26.8162 159.089 26.8363C159.149 26.8554 159.198 26.9058 159.239 26.9864C159.317 27.1086 159.308 27.2889 159.208 27.5286L158.367 29.8138C158.246 30.114 158.016 30.2641 157.676 30.2641C157.556 30.2641 157.274 30.2394 156.836 30.189C156.395 30.1386 155.825 30.114 155.124 30.114H152.933V32.519H155.814C157.497 32.519 158.508 32.2334 159.379 31.662C160.249 31.0908 160.923 30.0837 161.404 28.6398L167 11.771V11.1695H164.431L159.958 24.2879C159.898 24.4481 159.803 24.661 159.496 24.661C159.189 24.661 159.095 24.4492 159.033 24.2879L154.561 11.1695ZM56.3085 26.3491C57.4392 25.7284 58.3604 24.7909 59.0707 23.5385C59.781 22.2861 60.1368 20.7772 60.1368 19.0141C60.1368 17.2509 59.781 15.7409 59.0707 14.4885C58.3593 13.2362 57.4392 12.2986 56.3085 11.6781C55.1778 11.0574 53.9612 10.746 52.6609 10.746C50.0995 10.746 48.2964 11.7677 47.2571 13.8131C47.1768 13.9722 47.0776 14.0528 46.9572 14.0528C46.8367 14.0528 46.7765 13.9923 46.7765 13.8724V11.1963H44.0745V32.5436H46.7765V24.1546C46.7765 24.0347 46.8379 23.9742 46.9572 23.9742C47.0765 23.9742 47.1768 24.0549 47.2571 24.214C48.2975 26.2595 50.0995 27.281 52.6609 27.281C53.9612 27.281 55.1778 26.9696 56.3085 26.3491ZM52.031 13.1488C53.6512 13.1488 54.957 13.6652 55.9483 14.698C56.9397 15.7309 57.4348 17.1692 57.4348 19.013C57.4348 20.8568 56.9397 22.2951 55.9483 23.3279C54.9582 24.3619 53.6512 24.8772 52.031 24.8772C50.4107 24.8772 49.1048 24.3608 48.1136 23.3279C47.1222 22.2963 46.7587 20.8568 46.7587 19.013C46.7587 17.1692 47.1222 15.7309 48.1136 14.698C49.1037 13.6652 50.4107 13.1488 52.031 13.1488Z" fill="#999999"/>
</svg>
