<svg width="109" height="30" viewBox="0 0 109 30" fill="none" xmlns="http://www.w3.org/2000/svg">
<path d="M7.52457 9.94375C4.93093 9.94375 3.65773 12.2624 3.65773 15.3583V23.117H0V6.74442H3.59365V10.9921H3.65605C4.42334 8.38046 5.95287 6.27012 8.3121 6.27012C9.97145 6.27012 10.6714 6.85787 10.6714 6.85787L9.02032 10.23C9.02032 10.2282 8.49423 9.94375 7.52457 9.94375ZM51.7428 12.1913V23.1155H48.1794V13.5208C48.1794 10.7668 47.3278 9.30855 45.1525 9.30855C42.8995 9.30855 41.8101 11.153 41.8101 14.6911V23.1137H38.2788V13.5208C38.2788 10.8735 37.4373 9.30855 35.2838 9.30855C32.8251 9.30855 31.879 11.4934 31.879 14.6911V23.1137H28.2854V6.74442H31.879V10.4518H31.9111C32.471 7.88587 33.9987 6.30238 36.5773 6.30238C39.1338 6.30238 40.8 7.69623 41.4323 10.1673C42.0343 7.78939 43.6364 6.30238 46.0984 6.30238C49.5336 6.30238 51.7428 8.48715 51.7428 12.1913ZM17.8603 6.27012C14.5534 6.27012 12.3898 7.84528 11.4033 10.689L14.4472 11.8119C15.002 10.0961 16.1587 9.11891 17.9244 9.11891C19.911 9.11891 21.0778 10.0064 21.0778 11.3681C21.0778 12.7603 20.1488 13.0516 18.0509 13.3954C15.717 13.7764 10.1671 13.9018 10.1671 18.6509C10.1671 21.4336 12.4606 23.527 15.9058 23.527C18.4961 23.527 20.26 22.4532 21.0762 20.4547H21.1082V23.1155H24.6715V13.0465C24.6699 8.64129 22.4843 6.27012 17.8603 6.27012ZM21.1706 15.4091C21.1706 18.8422 19.496 21.0474 16.8198 21.0474C14.9277 21.0474 13.7929 19.9703 13.7929 18.4172C13.7929 16.9606 14.9597 15.9495 17.1975 15.5329C19.4877 15.1061 20.6412 14.5793 21.1706 13.3158V15.4091ZM64.4175 6.30238C61.6923 6.30238 59.8913 7.82155 59.1206 10.1047V6.74442H55.3364V29.4176H59.0885V19.7569H59.1206C59.9554 22.2296 61.694 23.5897 64.4175 23.5897C68.7363 23.5897 71.8274 19.9804 71.8274 14.8808C71.8257 9.81667 68.7363 6.30238 64.4175 6.30238ZM63.4866 20.5511C60.495 20.5511 58.8357 18.3494 58.8357 14.9298C58.8357 11.5104 60.6922 9.30855 63.4866 9.30855C66.2792 9.30855 68.1376 11.6171 68.1376 14.9298C68.1376 18.2444 66.281 20.5511 63.4866 20.5511ZM109 23.0401V23.1421L94.3553 23.1473V23.0401C96.467 21.8303 97.9247 20.5979 99.2367 19.3102H105.249L109 23.0401ZM105.371 3.69344L101.66 0H101.552C101.552 0 101.614 6.88326 95.3816 13.1435C89.2829 19.2704 82.111 19.2843 82.111 19.2843V19.3916L85.8927 23.1491C85.8927 23.1491 92.9602 23.2201 99.2033 17.0083C105.424 10.8173 105.371 3.69344 105.371 3.69344Z" fill="#999999"/>
</svg>
