<svg width="197" height="48" viewBox="0 0 197 48" fill="none" xmlns="http://www.w3.org/2000/svg">
<g clip-path="url(#clip0_1_23)">
<path d="M30.5456 30.4837C30.2908 28.7413 29.7757 27.0477 29.1658 25.4002C28.2467 22.9946 27.0633 20.6936 25.6596 18.5363C24.2878 16.4205 22.7248 14.4258 20.9649 12.6208C19.1545 10.7482 17.1489 9.06892 15.0175 7.57485C13.0522 6.21376 10.9848 4.98737 8.79483 4.02183C8.62576 3.94056 8.4272 3.87691 8.24622 3.96159C7.93134 4.06218 7.73673 4.44237 7.86212 4.75323C7.94779 4.97203 8.08679 5.16469 8.19572 5.37325C9.23963 7.289 10.1377 9.28771 10.8469 11.353C11.5493 13.4193 12.0678 15.5647 12.1767 17.7509C12.2391 19.304 12.1076 20.8589 11.901 22.3973C11.7081 23.5561 11.4505 24.7057 11.092 25.8253C10.4316 27.8093 9.50855 29.7403 8.14013 31.3356C7.95006 31.5742 7.63235 31.7782 7.66071 32.1221C7.66525 32.5574 8.19004 32.8831 8.5713 32.6518C9.9403 31.7652 11.4261 31.0713 12.954 30.5087C14.824 29.8495 16.7819 29.3988 18.7676 29.3209C19.8875 29.2726 21.0108 29.3192 22.1268 29.4294C24.7321 29.7352 27.3027 30.3746 29.7297 31.376C30.0231 31.514 30.3924 31.3486 30.5263 31.0628C30.6063 30.8781 30.5712 30.674 30.5468 30.4819L30.5456 30.4837ZM26.1084 28.8919C25.2653 28.6606 24.4013 28.5196 23.5429 28.36C22.0462 28.1497 20.5331 28.011 19.0189 28.061C16.4664 28.1406 13.9452 28.7367 11.585 29.7022C11.2168 29.8233 10.8878 30.0393 10.515 30.149C11.981 27.6649 12.8434 24.8524 13.2059 21.9983C13.3336 21.0754 13.4153 20.1457 13.4169 19.2131C13.4578 18.7687 13.4606 18.322 13.4175 17.8776C13.4193 16.7876 13.2246 15.7107 13.0391 14.64C12.4842 11.9388 11.5232 9.33602 10.3488 6.84686C10.2064 6.55816 10.0566 6.27287 9.93406 5.97565C10.0577 6.02168 10.1803 6.07226 10.2972 6.13591C15.1939 8.78249 19.5941 12.4077 22.9596 16.8592C25.3102 19.965 27.2312 23.4202 28.451 27.1284C28.7312 28.0081 28.9854 28.8975 29.1551 29.8057C28.1497 29.4693 27.1438 29.126 26.1084 28.8919Z" fill="#999999"/>
<path d="M39.1199 29.9817C38.2298 27.5641 37.1569 25.2136 35.9133 22.9579C34.7258 20.8279 33.3773 18.7724 31.7389 16.9596C30.8481 15.9667 29.908 15.0199 28.9594 14.0834C27.3482 12.5404 25.6513 11.0657 23.7546 9.88365C22.8571 9.33635 21.9176 8.82886 20.8941 8.56687C20.6228 8.51174 20.3358 8.41628 20.0612 8.49527C19.5972 8.61859 19.4769 9.30396 19.8683 9.57902C20.7925 10.1826 21.6685 10.8595 22.4935 11.5919C24.2323 13.1088 25.7573 14.8739 26.9703 16.8397C29.4076 20.7263 31.251 24.9698 32.5819 29.3565C32.6925 29.6896 32.6903 30.1032 32.9904 30.3374C33.1595 30.4795 33.3944 30.4533 33.5968 30.4198C34.1897 30.2993 34.7934 30.2107 35.4004 30.2266C35.8595 30.2373 36.2946 30.4034 36.7308 30.5306C37.1507 30.6789 37.5672 30.8358 37.9785 31.0063C38.2343 31.1086 38.4839 31.2819 38.7716 31.2552C39.0445 31.2285 39.2765 30.9949 39.31 30.7233C39.3418 30.4608 39.2045 30.2215 39.1217 29.9817H39.1199ZM36.1312 29.0588C35.363 28.9081 34.5716 28.99 33.8045 29.1036C32.6131 25.1108 30.9803 21.2468 28.9066 17.6318C28.3842 16.7453 27.8469 15.8661 27.2619 15.0182C26.5976 14.0703 25.8566 13.1781 25.0669 12.333C27.0072 13.843 28.7575 15.582 30.4311 17.3795C32.0412 19.0805 33.371 21.0275 34.5352 23.0546C35.5837 24.8885 36.4971 26.7974 37.3039 28.7484C37.4071 28.99 37.5064 29.2349 37.5841 29.4866C37.0956 29.3576 36.6253 29.1673 36.1312 29.0588ZM46.1063 40.0999C45.8828 39.8385 45.5157 39.9153 45.2201 39.8323C44.5841 39.6686 44.0956 39.2009 43.6122 38.7832C42.9961 38.2336 42.3516 37.6665 41.5505 37.4125C40.7659 37.13 39.878 37.1521 39.1053 37.4665C38.218 37.8006 37.5303 38.4746 36.7996 39.0526C36.3044 39.4486 35.7313 39.7959 35.0857 39.8442C34.5115 39.8812 33.8999 39.7494 33.4472 39.3788C34.0787 39.089 34.6988 38.7781 35.3103 38.4508C36.7758 37.6489 38.2543 36.8618 39.6306 35.911C40.884 35.0614 42.0906 34.1442 43.2792 33.2059C43.4336 33.082 43.6106 32.9564 43.6645 32.7541C43.7898 32.3631 43.4364 31.9096 43.0239 31.9585C41.2022 32.0556 39.3821 32.2102 37.561 32.3091C35.5708 32.4233 33.5822 32.5796 31.5925 32.6972C29.6228 32.799 27.6564 32.9694 25.6871 33.0746C23.7189 33.1883 21.7525 33.3457 19.785 33.4542C17.8362 33.5662 15.8902 33.7276 13.9403 33.8288C12.0403 33.9538 10.1396 34.0811 8.24019 34.2067C7.26208 34.2635 6.28172 34.3112 5.30589 34.3976C4.92861 34.4136 4.65061 34.8426 4.77883 35.1943C4.85542 35.4012 4.97286 35.5894 5.07272 35.786C5.38815 36.3588 5.68034 36.9448 5.99465 37.5188C5.35128 37.9296 4.72664 38.3677 4.10085 38.8048C3.59365 39.1332 3.0995 39.5032 2.52252 39.6987C2.28991 39.7391 2.02098 39.7243 1.85248 39.9226C1.52796 40.2141 1.65958 40.8126 2.07714 40.9382C2.47712 41.049 2.89355 40.8979 3.2663 40.7552C4.5014 40.167 5.53623 39.2475 6.71006 38.5553C7.02777 38.3843 7.34832 38.1785 7.7171 38.1507C8.10913 38.1876 8.41889 38.4604 8.72924 38.6758C9.5916 39.347 10.4023 40.1085 11.398 40.5808C12.2553 41.0019 13.264 41.1565 14.1927 40.8938C15.2945 40.6171 16.1461 39.8238 17.0345 39.164C17.4544 38.8559 17.9139 38.5576 18.4427 38.4962C18.9255 38.4246 19.4231 38.5541 19.8316 38.8139C20.6446 39.3186 21.2794 40.0642 22.1179 40.5307C22.9593 41.0366 24.0134 41.2178 24.9609 40.9274C25.8239 40.7001 26.5262 40.1135 27.186 39.5401C27.6989 39.1253 28.2203 38.6582 28.887 38.5257C29.5683 38.3814 30.2944 38.5508 30.8556 38.961C31.7963 39.6129 32.5713 40.5484 33.6923 40.9064C34.6631 41.2604 35.7705 41.1388 36.6685 40.6393C37.3834 40.2648 37.9609 39.6891 38.5969 39.2032C39.0078 38.8929 39.4559 38.5928 39.975 38.5115C40.5656 38.4019 41.1953 38.5275 41.7003 38.8531C42.4572 39.3282 43.0335 40.0352 43.7813 40.5222C44.3561 40.9137 45.0488 41.1803 45.7528 41.1354C46.2152 41.0831 46.4654 40.4244 46.1057 40.1011L46.1063 40.0999ZM32.2994 38.4626C32.1003 38.3564 31.9392 38.1927 31.756 38.0643C31.0689 37.5562 30.2338 37.2022 29.3692 37.2204C28.6679 37.2181 27.9734 37.446 27.3869 37.8261C26.5943 38.3064 25.985 39.0367 25.1782 39.4964C24.6097 39.8425 23.8892 39.8874 23.2611 39.6976C22.2297 39.3123 21.5302 38.4087 20.6168 37.833C19.962 37.4022 19.1695 37.1442 18.3814 37.2351C17.5933 37.3267 16.8723 37.7097 16.2516 38.1904C15.4829 38.7457 14.7748 39.4538 13.833 39.7044C12.9758 39.9277 12.0885 39.6141 11.377 39.1373C10.505 38.5883 9.78562 37.8336 8.91305 37.2852C8.39166 36.9584 7.73809 36.7782 7.13841 36.988C6.86325 36.5333 6.63064 36.0537 6.38668 35.5819C8.39393 35.4296 10.4023 35.3069 12.4112 35.191C14.4237 35.042 16.4366 34.9211 18.4496 34.8C20.0568 34.6829 21.6647 34.5777 23.2731 34.4897C25.6644 34.3169 28.0569 34.1765 30.4499 34.0237C32.6314 33.856 34.8162 33.7623 36.9982 33.5946C37.9916 33.5412 38.981 33.4451 39.9756 33.4138C40.3069 33.3832 40.64 33.3491 40.973 33.3656C40.8811 33.4679 40.7789 33.5611 40.6684 33.643C39.6948 34.3527 38.7184 35.0614 37.6864 35.6842C36.2011 36.5498 34.7062 37.4034 33.1527 38.1399C32.8725 38.2575 32.5957 38.3939 32.3 38.4638L32.2994 38.4626ZM75.0818 10.9937C76.0288 10.6357 77.2588 11.3518 77.105 12.4366C77.0987 13.6238 75.5084 14.2006 74.6677 13.4391C73.8575 12.8009 74.0833 11.3211 75.0818 10.9937ZM90.1405 10.9602C90.8616 10.9318 91.5855 10.9341 92.3066 10.9427C92.3003 16.8706 92.3003 22.7992 92.3066 28.7271C91.6456 28.7356 90.983 28.7356 90.3243 28.7055C90.2896 28.0895 90.2483 27.4729 90.1836 26.8608C89.3559 27.6916 88.4504 28.5401 87.2698 28.805C85.3459 29.2238 83.1474 28.8812 81.6831 27.4792C79.6055 25.5742 79.1834 22.3343 80.1774 19.7803C81.0267 17.6015 83.2689 16.0392 85.621 16.1392C87.3951 16.0005 89.1476 16.866 90.1484 18.3306C90.1201 15.8744 90.1376 13.4182 90.1399 10.9592M85.2857 18.0146C83.9514 18.197 82.7883 19.141 82.2919 20.3884C81.5101 22.3024 81.7739 24.7933 83.3749 26.2147C84.9652 27.5797 87.6294 27.4274 88.9944 25.8111C90.4434 24.0426 90.4696 21.2199 89.0921 19.399C88.2041 18.2772 86.6786 17.7544 85.2857 18.0146ZM96.3103 10.9976C97.2612 10.6288 98.4617 11.3795 98.3056 12.4536C98.3034 13.6294 96.7222 14.1829 95.8967 13.4385C95.0757 12.8093 95.3118 11.3191 96.3103 10.9976ZM53.827 11.381C54.6611 11.3702 55.4973 11.3617 56.3335 11.3963C58.3635 15.3847 60.3781 19.3815 62.4314 23.3591C64.2684 19.7481 66.0964 16.1332 67.9204 12.5158C68.1264 12.1402 68.2602 11.7066 68.5592 11.3895C69.3802 11.3418 70.2011 11.3787 71.0221 11.3872C71.009 17.1634 71.0113 22.9396 71.0221 28.7159C70.3027 28.7352 69.5816 28.7335 68.8622 28.7289C68.8559 24.2416 68.8429 19.7543 68.8684 15.2671C67.0251 18.9559 65.0905 22.597 63.2404 26.2813C62.7031 26.2989 62.1636 26.2989 61.6263 26.2921C59.7263 22.6794 57.9068 19.0252 56.0006 15.4164C55.9789 19.8475 56.0006 24.2785 55.9898 28.7096C55.2687 28.7358 54.547 28.7335 53.8237 28.7249C53.8299 22.9442 53.8299 17.1618 53.8259 11.381H53.827ZM105.842 16.2025C107.367 15.994 108.998 16.1741 110.309 17.0379C112.133 18.1534 113.105 20.3295 113.07 22.43C113.149 24.3002 112.451 26.2319 111.028 27.4816C108.547 29.7122 104.169 29.4343 102.146 26.72C100.999 25.2817 100.703 23.3716 100.888 21.5838C101.087 18.9389 103.196 16.5713 105.842 16.2025ZM106.304 18.0148C104.705 18.2404 103.482 19.6316 103.169 21.1723C102.905 22.663 102.983 24.3405 103.921 25.5965C104.861 26.9616 106.757 27.4952 108.286 26.8917C109.699 26.3882 110.637 24.9799 110.809 23.5194C110.972 22.1026 110.849 20.5227 109.915 19.3748C109.094 18.2899 107.632 17.75 106.304 18.0148ZM131.842 18.55C132.75 16.9463 134.576 15.9939 136.409 16.1285C136.417 16.8468 136.414 17.5669 136.41 18.2852C135.308 18.3176 134.114 18.4091 133.201 19.0967C132.247 19.8129 131.901 21.0693 131.887 22.2127C131.887 24.3802 131.883 26.5461 131.896 28.7136C131.175 28.7312 130.451 28.7289 129.73 28.7221C129.723 24.6013 129.723 20.4806 129.732 16.3604C130.38 16.3582 131.03 16.3558 131.681 16.3649C131.714 17.0941 131.805 17.8209 131.842 18.55ZM140.6 18.4854C141.434 17.1272 142.905 16.1162 144.536 16.1355C145.877 16.04 147.302 16.4327 148.247 17.433C149.322 18.507 149.546 20.1108 149.578 21.5622C149.57 23.9445 149.585 26.3252 149.57 28.7075C148.857 28.7336 148.143 28.7336 147.428 28.716C147.439 26.4053 147.441 24.094 147.432 21.7833C147.389 20.6354 147.228 19.3117 146.273 18.5395C144.989 17.6085 143.019 17.7801 141.923 18.9367C141.105 19.7158 140.756 20.8808 140.748 21.9873C140.739 24.2333 140.756 26.4769 140.741 28.7229C140.02 28.7291 139.298 28.7314 138.577 28.712C138.591 24.5998 138.591 20.4859 138.577 16.3742C139.23 16.3566 139.884 16.3566 140.538 16.3588C140.565 17.0664 140.599 17.7756 140.601 18.4854H140.6ZM152.941 18.9093C154.798 15.5546 160.14 15.1165 162.551 18.074C163.701 19.3651 163.966 21.1746 163.875 22.8454C160.636 22.8994 157.397 22.8477 154.159 22.8715C154.196 24.0389 154.594 25.2323 155.446 26.0569C156.674 27.3242 158.851 27.5043 160.266 26.4451C160.788 26.0717 161.071 25.4857 161.407 24.9589C162.088 24.7549 162.857 24.8573 163.56 24.9504C162.98 26.6019 161.793 28.1357 160.071 28.6716C158.039 29.2899 155.612 28.9797 154.022 27.4867C151.698 25.3647 151.446 21.5719 152.941 18.9093ZM155.472 18.831C154.675 19.4214 154.3 20.3847 154.167 21.3395C156.701 21.3547 159.233 21.3547 161.765 21.3395C161.632 20.5933 161.475 19.8141 160.976 19.2174C159.633 17.6443 157.042 17.5511 155.472 18.831ZM74.5409 16.382C75.2643 16.3558 75.9882 16.3581 76.7093 16.3666C76.6986 20.4851 76.7048 24.6035 76.7071 28.722C75.9859 28.7329 75.2643 28.7351 74.5432 28.7067C74.5324 24.5967 74.5409 20.4896 74.5409 16.382ZM95.7522 16.3734C96.4716 16.3582 97.1927 16.3559 97.9121 16.3712C97.899 21.2188 97.9228 26.0664 97.9035 30.9141C97.9059 31.9466 97.5745 33.1276 96.6146 33.6635C95.5553 34.3232 94.2686 34.1431 93.0857 34.1386C93.092 33.5572 93.0942 32.9776 93.088 32.3962C93.8073 32.3246 94.5915 32.4417 95.2433 32.0705C95.683 31.7648 95.7545 31.1936 95.7483 30.6993C95.7528 25.9232 95.7414 21.1495 95.7522 16.3734ZM115.565 16.3682C116.286 16.3575 117.008 16.3551 117.731 16.3835C117.742 18.829 117.72 21.2767 117.74 23.7221C117.744 24.8308 118.071 26.0805 119.061 26.7079C120.386 27.474 122.237 27.22 123.281 26.0811C124.043 25.2957 124.361 24.1738 124.359 23.0975C124.372 20.8584 124.351 18.621 124.368 16.3819C125.087 16.358 125.808 16.358 126.53 16.3688C126.525 20.4873 126.525 24.6058 126.532 28.7242C125.878 28.7328 125.224 28.7305 124.57 28.7197C124.54 28.0599 124.511 27.3983 124.466 26.7386C123.764 27.6934 122.83 28.5333 121.65 28.809C120.133 29.1516 118.396 28.9806 117.166 27.9519C115.995 26.9995 115.593 25.4111 115.577 23.959C115.551 21.429 115.577 18.8989 115.564 16.3688L115.565 16.3682ZM164.705 16.3764C165.483 16.3548 166.263 16.3548 167.042 16.3764C168.375 19.5055 169.623 22.6714 170.996 25.7807C172.428 22.6709 173.799 19.5333 175.169 16.3957C175.925 16.3435 176.683 16.3542 177.439 16.3696C174.757 22.2935 172.157 28.2522 169.454 34.1631C168.715 34.1523 167.979 34.1586 167.242 34.1438C168.167 31.9803 169.209 29.8713 170.115 27.7015C169.831 27.5407 169.454 27.4452 169.35 27.094C167.791 23.5268 166.261 19.9442 164.706 16.377L164.705 16.3764Z" fill="#999999"/>
</g>
<defs>
<clipPath id="clip0_1_23">
<rect width="195.906" height="48" fill="white" transform="translate(0.719971)"/>
</clipPath>
</defs>
</svg>
