<svg width="142" height="28" viewBox="0 0 142 28" fill="none" xmlns="http://www.w3.org/2000/svg">
<path fill-rule="evenodd" clip-rule="evenodd" d="M99.4128 5.65164C97.2632 5.65164 95.6511 6.47871 94.845 7.85716L94.442 8.68423V6.06518H90.949V22.0552H94.7107V12.5439C94.7107 10.3384 95.9198 8.95992 98.0688 8.95992C100.084 8.95992 101.159 10.2005 101.159 12.406V22.0552H104.921V11.7168C104.787 7.99501 102.771 5.65164 99.4128 5.65164ZM81.2761 5.65164C76.8428 5.65164 74.1559 8.54639 74.1559 13.0953V15.3008C74.1559 19.7118 76.9771 22.3309 81.4105 22.3309C84.3661 22.3309 86.5156 21.2281 87.7247 18.8848L85.4408 17.5063C84.5004 18.8848 82.8883 19.7118 81.4105 19.7118C79.1266 19.7118 77.7832 18.3334 77.7832 15.8522V15.1629H88.2621V12.5439C88.1277 8.40854 85.4408 5.65164 81.2761 5.65164ZM84.7691 12.8196H77.7832V12.406C77.7832 9.78699 78.9923 8.2707 81.2761 8.2707C83.4257 8.2707 84.7691 9.64915 84.7691 12.1304V12.8196ZM142 3.44612V0.413535H129.103V3.44612H133.671V19.0226H129.103V22.0552H142V19.0226H137.432V3.44612H142ZM43.7939 0C38.017 0 34.3898 3.72181 34.3898 9.64915V12.8196C34.3898 18.7469 38.017 22.4687 43.7939 22.4687C49.5707 22.4687 53.198 18.7469 53.198 12.8196V9.64915C53.198 3.72181 49.5707 0 43.7939 0ZM49.302 13.0953C49.302 17.0928 47.2869 19.2983 43.7939 19.2983C40.3009 19.2983 38.2857 17.0928 38.2857 13.0953V9.37346C38.2857 5.37595 40.3009 3.17043 43.7939 3.17043C47.2869 3.17043 49.302 5.37595 49.302 9.37346V13.0953ZM65.0204 5.78949C63.0053 5.78949 61.3931 6.61656 60.4527 7.99501L60.0497 8.54639V6.06518H56.5567V27.569H60.3183V19.8497L60.7214 20.4011C61.5275 21.6417 63.274 22.4687 65.1548 22.4687C68.3791 22.4687 71.6034 20.2632 71.6034 15.4386V12.6817C71.469 9.23561 69.4538 5.65164 65.0204 5.78949ZM67.7073 15.3008C67.7073 17.9198 66.2295 19.4361 63.9457 19.4361C61.7962 19.4361 60.184 17.782 60.184 15.3008V12.9574C60.184 10.4762 61.6618 8.82208 63.9457 8.82208C66.2295 8.82208 67.7073 10.4762 67.7073 12.9574V15.3008ZM115.131 0.413535L107.608 22.0552H111.37L112.847 17.3685H121.579L123.057 21.9173H126.819L119.296 0.27569L115.131 0.413535ZM113.788 14.3359L117.147 3.44612L120.505 14.3359H113.788ZM24.7169 11.3033C25.3887 9.37346 25.12 7.30578 24.1795 5.65164C22.7017 3.03259 19.7462 1.65414 16.9249 2.34336C15.3128 0.55138 12.8945 -0.27569 10.4763 0.137845C8.05811 0.689225 6.17729 2.48121 5.37122 4.82457C3.49038 5.23811 1.87825 6.47871 0.937831 8.13285C-0.539964 10.7519 -0.271272 14.0602 1.7439 16.2657C1.07218 18.1955 1.34087 20.2632 2.28128 21.9173C3.75907 24.5364 6.71467 25.9149 9.53591 25.2256C10.8794 26.7419 12.6258 27.569 14.641 27.569C17.5966 27.569 20.1492 25.6392 21.0896 22.7444C22.9704 22.3309 24.5826 21.0903 25.523 19.4361C27.0008 16.8171 26.7321 13.5088 24.7169 11.3033ZM14.641 25.777C13.4319 25.777 12.3572 25.3635 11.4167 24.5364L11.5511 24.3986L16.9249 21.2281C17.1936 21.0903 17.3279 20.8146 17.3279 20.4011V12.6817L19.6118 14.0602V20.5389C19.6118 23.4336 17.4623 25.777 14.641 25.777ZM3.75907 20.9524C3.2217 19.8497 2.95301 18.7469 3.2217 17.5063L3.35605 17.6442L8.72984 20.8146C8.99853 20.9524 9.26722 20.9524 9.67021 20.8146L16.2532 16.9549V19.7118L10.8794 22.8823C8.32681 24.2607 5.23687 23.4336 3.75907 20.9524ZM2.41563 9.09777C2.95301 7.99501 3.89342 7.30578 5.10253 6.89225V13.371C5.10253 13.6467 5.23687 13.9223 5.50556 14.198L11.9541 18.0577L9.67021 19.4361H9.53591L4.16211 16.2657C1.87825 14.6116 1.07218 11.4411 2.41563 9.09777ZM20.9553 13.5088L14.5067 9.64915L16.7906 8.2707H16.9249L22.2987 11.4411C24.0452 12.406 24.9856 14.3359 24.8513 16.4036C24.7169 18.3334 23.3735 20.1254 21.627 20.8146V14.3359C21.4926 13.9223 21.224 13.6467 20.9553 13.5088ZM23.2391 10.0627L23.1048 9.92484L17.731 6.7544C17.4623 6.61656 17.0592 6.61656 16.7906 6.7544L10.342 10.6141V7.85716L15.7158 4.68673C17.4623 3.72181 19.4775 3.72182 21.0896 4.96242C22.7017 6.06518 23.5078 7.99501 23.2391 10.0627ZM9.13288 14.7494L6.84902 13.371V6.89225C6.84902 4.82457 7.92377 3.03259 9.80461 2.20552C11.5511 1.37845 13.7006 1.65414 15.1784 2.89474L15.0441 3.03259L9.67021 6.20302C9.40161 6.34087 9.26722 6.61656 9.26722 7.03009L9.13288 14.7494ZM10.342 11.9925L13.2976 10.3384L16.2532 11.9925V15.4386L13.2976 17.0928L10.342 15.4386V11.9925Z" fill="#999999"/>
</svg>
