<svg width="122" height="32" viewBox="0 0 122 32" fill="none" xmlns="http://www.w3.org/2000/svg">
<path d="M22.7797 8.09007C27.0834 8.09007 30.7006 10.9446 30.7006 16.2458C30.7006 16.598 30.7006 16.8946 30.6635 17.4321H17.7342C17.9011 20.1198 20.0714 21.8992 22.7983 21.8992C25.0985 21.8992 26.6382 20.8426 27.4915 19.3968L30.2554 21.3616C28.7714 23.6971 26.2115 25.18 22.7612 25.18C17.7713 25.18 14.1726 21.6397 14.1726 16.635C14.1912 11.7973 17.7898 8.09007 22.7797 8.09007ZM17.9197 14.7815H27.0648C26.6753 12.4089 24.7646 11.13 22.6499 11.13C20.5352 11.13 18.402 12.3533 17.9197 14.7815ZM34.3829 8.40522H38.0001V10.611C38.9276 9.29492 40.931 8.09007 43.2869 8.09007C47.7945 8.09007 51.2076 11.927 51.2076 16.6351C51.2076 21.3246 47.7945 25.18 43.2869 25.18C40.9124 25.18 38.909 23.9566 38.0001 22.6406V31.7046H34.3829V8.40522ZM42.6376 11.3709C39.7067 11.3709 37.7033 13.6693 37.7033 16.6351C37.7033 19.6008 39.7067 21.8992 42.6376 21.8992C45.5314 21.8992 47.5348 19.6008 47.5348 16.6351C47.5348 13.6693 45.5314 11.3709 42.6376 11.3709ZM58.5072 0.183031H54.89V24.817H58.5072V0.183031ZM65.1865 4.81929C63.8694 4.81929 62.7564 3.74419 62.7564 2.39114C62.7564 1.0751 63.8694 0 65.1865 0C66.5407 0 67.5795 1.09355 67.5795 2.39114C67.5795 3.74419 66.5407 4.81929 65.1865 4.81929ZM63.3871 8.39663H67.0044V24.8193H63.3871V8.39663ZM79.3521 25.1608C74.4177 25.1608 70.6707 21.4721 70.6707 16.6158C70.6707 11.7594 74.4177 8.07083 79.3521 8.07083C82.7465 8.07083 85.6029 9.88732 87.0129 12.6121L83.8595 14.3174C83.0622 12.6492 81.4667 11.4258 79.3521 11.4258C76.4212 11.4258 74.3622 13.6872 74.3622 16.6158C74.3622 19.5445 76.4398 21.8057 79.3521 21.8057C81.448 21.8057 83.0622 20.5825 83.8595 18.9143L87.0129 20.6194C85.6029 23.3627 82.7277 25.1608 79.3521 25.1608ZM97.0653 8.09007C99.4403 8.09007 101.406 9.31346 102.333 10.611V8.40522H105.95V24.8279H102.333V22.6221C101.406 23.9381 99.4403 25.1615 97.0653 25.1615C92.5581 25.1615 89.1442 21.3246 89.1442 16.6165C89.1442 11.927 92.5581 8.09007 97.0653 8.09007ZM97.7333 11.3709C94.8028 11.3709 92.8364 13.6693 92.8364 16.635C92.8364 19.6008 94.8028 21.8992 97.7333 21.8992C100.664 21.8992 102.63 19.6008 102.63 16.635C102.63 13.6693 100.646 11.3709 97.7333 11.3709ZM112.15 24.8378V11.6219H108.718V8.39673H112.15V3.83694H115.767V8.39673H122V11.6219H115.767V21.5941H122V24.8378H112.15ZM12.4841 8.39456V11.6383H3.61721V24.8358H0V8.39456H12.4841Z" fill="#999999"/>
</svg>
